<svg width="20" height="20" viewBox="0 0 20 20" fill="none" xmlns="http://www.w3.org/2000/svg">
<path d="M7.16634 3.66675C7.16634 3.39061 6.94248 3.16675 6.66634 3.16675C6.3902 3.16675 6.16634 3.39061 6.16634 3.66675V4.71959C5.20679 4.79642 4.57686 4.985 4.11406 5.4478C3.65126 5.9106 3.46268 6.54053 3.38585 7.50008H16.6135C16.5367 6.54053 16.3481 5.9106 15.8853 5.4478C15.4225 4.985 14.7926 4.79642 13.833 4.71959V3.66675C13.833 3.39061 13.6091 3.16675 13.333 3.16675C13.0569 3.16675 12.833 3.39061 12.833 3.66675V4.67535C12.3895 4.66675 11.8924 4.66675 11.333 4.66675H8.66634C8.10698 4.66675 7.60985 4.66675 7.16634 4.67535V3.66675Z" fill="#E0CEFF"/>
<path fill-rule="evenodd" clip-rule="evenodd" d="M16.6663 10.0001V11.3334C16.6663 13.8476 16.6663 15.1047 15.8853 15.8857C15.1042 16.6667 13.8472 16.6667 11.333 16.6667H8.66634C6.15218 16.6667 4.89511 16.6667 4.11406 15.8857C3.33301 15.1047 3.33301 13.8476 3.33301 11.3334V10.0001C3.33301 9.44073 3.33301 8.94359 3.34161 8.50008H16.6577C16.6663 8.94359 16.6663 9.44073 16.6663 10.0001ZM12.9997 14.0001C13.552 14.0001 13.9997 13.5524 13.9997 13.0001C13.9997 12.4478 13.552 12.0001 12.9997 12.0001C12.4474 12.0001 11.9997 12.4478 11.9997 13.0001C11.9997 13.5524 12.4474 14.0001 12.9997 14.0001Z" fill="#E0CEFF"/>
</svg>
