<svg width="30" height="31" viewBox="0 0 30 31" fill="none" xmlns="http://www.w3.org/2000/svg">
<g opacity="0.5">
<path d="M25 15.5C25 20.214 25 22.5711 23.5355 24.0355C22.0711 25.5 19.714 25.5 15 25.5C10.286 25.5 7.92893 25.5 6.46447 24.0355C5 22.5711 5 20.214 5 15.5C5 10.786 5 8.42893 6.46447 6.96447C7.92893 5.5 10.286 5.5 15 5.5C19.714 5.5 22.0711 5.5 23.5355 6.96447C25 8.42893 25 10.786 25 15.5Z" fill="white" fill-opacity="0.3"/>
<path d="M15 6C17.3712 6 19.0994 6.00117 20.4199 6.17871C21.7259 6.35432 22.5578 6.69454 23.1816 7.31836C23.8055 7.94218 24.1457 8.77407 24.3213 10.0801C24.4988 11.4006 24.5 13.1288 24.5 15.5C24.5 17.8712 24.4988 19.5994 24.3213 20.9199C24.1457 22.2259 23.8055 23.0578 23.1816 23.6816C22.5578 24.3055 21.7259 24.6457 20.4199 24.8213C19.0994 24.9988 17.3712 25 15 25C12.6288 25 10.9006 24.9988 9.58008 24.8213C8.27407 24.6457 7.44218 24.3055 6.81836 23.6816C6.19454 23.0578 5.85432 22.2259 5.67871 20.9199C5.50117 19.5994 5.5 17.8712 5.5 15.5C5.5 13.1288 5.50117 11.4006 5.67871 10.0801C5.85432 8.77407 6.19454 7.94218 6.81836 7.31836C7.44218 6.69454 8.27407 6.35432 9.58008 6.17871C10.9006 6.00117 12.6288 6 15 6Z" stroke="white" stroke-opacity="0.3" stroke-linecap="round"/>
</g>
<path d="M25 8.5C25 10.1569 23.6569 11.5 22 11.5C20.3431 11.5 19 10.1569 19 8.5C19 6.84315 20.3431 5.5 22 5.5C23.6569 5.5 25 6.84315 25 8.5Z" fill="#FD521B"/>
</svg>
