<svg width="16" height="16" viewBox="0 0 16 16" fill="none" xmlns="http://www.w3.org/2000/svg">
<path fill-rule="evenodd" clip-rule="evenodd" d="M13.3337 8.00008C13.3337 10.9456 10.9458 13.3334 8.00033 13.3334C5.05481 13.3334 2.66699 10.9456 2.66699 8.00008C2.66699 5.05456 5.05481 2.66675 8.00033 2.66675C10.9458 2.66675 13.3337 5.05456 13.3337 8.00008ZM10.1498 6.38391C10.306 6.54012 10.306 6.79338 10.1498 6.94959L7.48317 9.61626C7.32696 9.77247 7.07369 9.77247 6.91748 9.61626L5.85082 8.54959C5.69461 8.39338 5.69461 8.14012 5.85082 7.98391C6.00703 7.8277 6.26029 7.8277 6.4165 7.98391L7.20033 8.76773L8.39224 7.57582L9.58415 6.38391C9.74036 6.2277 9.99363 6.2277 10.1498 6.38391Z" fill="white" fill-opacity="0.3"/>
</svg>
