<svg width="16" height="16" viewBox="0 0 16 16" fill="none" xmlns="http://www.w3.org/2000/svg">
<path d="M13.3337 8.00008C13.3337 10.9456 10.9458 13.3334 8.00033 13.3334C5.05481 13.3334 2.66699 10.9456 2.66699 8.00008C2.66699 5.05456 5.05481 2.66675 8.00033 2.66675C10.9458 2.66675 13.3337 5.05456 13.3337 8.00008Z" fill="white" fill-opacity="0.3"/>
<path fill-rule="evenodd" clip-rule="evenodd" d="M8.00033 5.46675C8.22124 5.46675 8.40033 5.64583 8.40033 5.86675V7.8344L9.6165 9.05057C9.77271 9.20678 9.77271 9.46005 9.6165 9.61626C9.46029 9.77247 9.20703 9.77247 9.05082 9.61626L7.71748 8.28292C7.64247 8.20791 7.60033 8.10617 7.60033 8.00008V5.86675C7.60033 5.64583 7.77941 5.46675 8.00033 5.46675Z" fill="#1E1E1E"/>
</svg>
