<svg width="24" height="24" viewBox="0 0 24 24" fill="none" xmlns="http://www.w3.org/2000/svg">
<path d="M13.1123 21.7956C16.3272 21.1512 20.484 18.8385 20.484 12.858C20.484 7.41581 16.5004 3.79182 13.636 2.12664C13.0003 1.75714 12.2562 2.24308 12.2562 2.97829V4.85883C12.2562 6.34173 11.6328 9.04852 9.90034 10.1744C9.01585 10.7492 8.06061 9.88886 7.95311 8.8395L7.86484 7.97781C7.76223 6.97607 6.742 6.36796 5.94138 6.97871C4.50307 8.07592 3 9.99727 3 12.858C3 20.1716 8.43947 22 11.1592 22C11.3174 22 11.4836 21.9953 11.6567 21.9853C10.3138 21.8705 8.14235 21.0373 8.14235 18.3429C8.14235 16.2353 9.67999 14.8094 10.8483 14.1163C11.1625 13.9299 11.5303 14.1719 11.5303 14.5373V15.1432C11.5303 15.607 11.7096 16.3319 12.1366 16.8282C12.6197 17.3897 13.3288 16.8015 13.386 16.0629C13.4041 15.8299 13.6384 15.6814 13.8402 15.7993C14.4997 16.1848 15.3416 17.0083 15.3416 18.3429C15.3416 20.4492 14.1805 21.4181 13.1123 21.7956Z" fill="#E4782A"/>
</svg>
