<svg width="249" height="61" viewBox="0 0 249 61" fill="none" xmlns="http://www.w3.org/2000/svg">
<path d="M200.209 7.36928H172.905V0.596044H204.76L202.701 5.63533C202.485 6.14107 202.142 6.55649 201.672 6.88161C201.239 7.20672 200.751 7.36928 200.209 7.36928ZM192.95 22.8665H172.905V16.2558H197.392L195.442 21.1325C195.225 21.6382 194.882 22.0537 194.413 22.3788C193.979 22.7039 193.492 22.8665 192.95 22.8665ZM200.372 38.5262H172.905V31.7529H204.76L202.918 36.738C202.738 37.2799 202.413 37.7134 201.943 38.0385C201.474 38.3636 200.95 38.5262 200.372 38.5262Z" fill="#2AAB2E"/>
<path d="M226.533 39.1222C223.788 39.1222 221.205 38.6346 218.786 37.6592C216.366 36.6477 214.235 35.275 212.393 33.5411C210.587 31.771 209.142 29.6939 208.059 27.3097C207.012 24.9255 206.488 22.3427 206.488 19.5611C206.488 16.7796 207.012 14.1967 208.059 11.8125C209.142 9.42835 210.587 7.36928 212.393 5.63533C214.199 3.86526 216.312 2.49255 218.731 1.51721C221.187 0.505735 223.788 0 226.533 0C229.314 0 231.914 0.505735 234.334 1.51721C236.79 2.49255 238.921 3.8472 240.726 5.58115C242.532 7.3151 243.959 9.37416 245.006 11.7583C246.09 14.1425 246.631 16.7434 246.631 19.5611C246.631 24.0405 245.241 28.0322 242.46 31.5362C242.207 31.2111 241.81 30.7595 241.268 30.1816C240.763 29.5674 240.239 28.9353 239.697 28.285C239.155 27.5987 238.686 26.9485 238.289 26.3344C237.891 25.6841 237.693 25.1603 237.693 24.763C237.693 24.185 237.837 23.4264 238.126 22.4872C238.415 21.5479 238.559 20.5726 238.559 19.5611C238.559 17.8272 238.252 16.2197 237.638 14.7386C237.061 13.2214 236.23 11.9028 235.146 10.783C234.099 9.66315 232.835 8.79618 231.354 8.18207C229.873 7.53184 228.266 7.20673 226.533 7.20673C224.799 7.20673 223.192 7.53184 221.711 8.18207C220.266 8.8323 219.002 9.71734 217.919 10.8372C216.871 11.957 216.041 13.2755 215.427 14.7928C214.849 16.2738 214.56 17.8633 214.56 19.5611C214.56 21.2589 214.831 22.8484 215.373 24.3295C215.95 25.8106 216.817 27.1471 217.973 28.3392C218.623 28.9895 219.255 29.5313 219.869 29.9648C220.519 30.3983 221.187 30.7595 221.874 31.0485C222.56 31.3014 223.282 31.5001 224.041 31.6446C224.799 31.7529 225.63 31.8433 226.533 31.9155C226.93 31.9516 227.291 32.06 227.616 32.2406C227.977 32.3851 228.284 32.6019 228.537 32.8909L232.817 38.2011C230.686 38.8152 228.591 39.1222 226.533 39.1222ZM238.614 39.935C237.747 39.935 237.061 39.5918 236.555 38.9055L226.262 26.0634C227.128 25.7744 228.104 25.4132 229.187 24.9797C230.307 24.5101 231.318 24.2753 232.221 24.2753C232.618 24.2753 232.997 24.3656 233.359 24.5462C233.756 24.7268 234.081 24.9616 234.334 25.2506L244.627 38.0927C244.446 38.1649 244.049 38.3094 243.435 38.5262C242.857 38.7068 242.225 38.9055 241.539 39.1222C240.889 39.339 240.275 39.5196 239.697 39.6641C239.155 39.8447 238.794 39.935 238.614 39.935Z" fill="#2AAB2E"/>
<path d="M29.8418 0.877686H37.7467V39.935H29.8418V0.877686Z" fill="white"/>
<path d="M55.2208 0.877686H63.1257V39.935H55.2208V0.877686Z" fill="white"/>
<path d="M71.4467 0.877686H73.527C76.7438 0.877686 79.3516 0.877686 79.3516 0.877686V39.935H71.4467V0.877686Z" fill="white"/>
<path d="M97.6578 0.877686H105.563V39.935H97.6578V0.877686Z" fill="white"/>
<path d="M125.117 0.877686H133.022V39.935H125.117V0.877686Z" fill="white"/>
<path d="M83.9282 8.77225V0.877687L119.292 0.877686V8.77225H83.9282Z" fill="white"/>
<path d="M125.117 8.77225V0.877686L152.16 0.877687V8.77225L125.117 8.77225Z" fill="white"/>
<path d="M125.117 24.1459V16.2513H148.302V18.3288C148.302 21.5415 148.302 24.1459 148.302 24.1459H125.117Z" fill="white"/>
<path d="M125.117 39.935V32.0405H152.16V39.935H125.117Z" fill="white"/>
<path d="M30.5884 24.5614V22.4839C30.5884 19.2712 33.1962 16.6668 36.4131 16.6668H63.1257V24.5614H30.5884Z" fill="white"/>
<path d="M10.2816 50.2253V60.8035H8.51683V53.2627L5.24821 58.5821H5.03337L1.76475 53.2476V60.8035H0V50.2253H1.90286L5.14079 55.5144L8.39406 50.2253H10.2816Z" fill="white"/>
<path d="M15.8761 59.1412H20.6333V60.8035H14.1114V50.2253H20.5566V51.8876H15.8761V54.6379H20.1729V56.2851H15.8761V59.1412Z" fill="white"/>
<path d="M31.0843 60.8035L30.3323 58.6728H25.7593L25.0074 60.8035H23.0892L26.987 50.2253H29.1047L32.9871 60.8035H31.0843ZM26.3425 57.0407H29.7492L28.0458 52.2654L26.3425 57.0407Z" fill="white"/>
<path d="M39.136 61C38.1028 61 37.223 60.7683 36.4966 60.3048C35.7805 59.8414 35.2792 59.2067 34.9927 58.4007L36.5119 57.5243C36.9416 58.713 37.8317 59.3074 39.1821 59.3074C39.8471 59.3074 40.3432 59.1815 40.6706 58.9297C41.0082 58.6677 41.177 58.3302 41.177 57.9172C41.177 57.484 40.998 57.1565 40.6399 56.9349C40.2819 56.7032 39.6476 56.4513 38.7371 56.1793C38.2255 56.0282 37.8112 55.8871 37.4941 55.7562C37.1769 55.6252 36.8393 55.4439 36.4813 55.2122C36.1334 54.9704 35.8725 54.6732 35.6986 54.3206C35.5247 53.9679 35.4377 53.5549 35.4377 53.0814C35.4377 52.1445 35.7754 51.404 36.4506 50.86C37.1258 50.3059 37.9391 50.0288 38.8905 50.0288C39.7499 50.0288 40.5018 50.2353 41.1463 50.6484C41.7908 51.0614 42.287 51.6307 42.6349 52.356L41.1463 53.2023C40.6962 52.215 39.9442 51.7213 38.8905 51.7213C38.379 51.7213 37.9698 51.8422 37.6629 52.084C37.356 52.3157 37.2025 52.6331 37.2025 53.0361C37.2025 53.429 37.356 53.7413 37.6629 53.973C37.98 54.1946 38.5478 54.4314 39.3662 54.6832C39.7754 54.8142 40.0721 54.915 40.2563 54.9855C40.4507 55.0459 40.7166 55.1467 41.0543 55.2877C41.4021 55.4288 41.663 55.5698 41.8369 55.7108C42.0108 55.8519 42.1949 56.0282 42.3893 56.2398C42.5939 56.4513 42.7372 56.6931 42.819 56.9651C42.9008 57.2371 42.9418 57.5444 42.9418 57.8869C42.9418 58.844 42.5888 59.6046 41.8829 60.1688C41.1872 60.7229 40.2716 61 39.136 61Z" fill="white"/>
<path d="M53.0554 60.0026C52.2983 60.6675 51.3213 61 50.1244 61C48.9274 61 47.9504 60.6675 47.1933 60.0026C46.4363 59.3276 46.0578 58.4259 46.0578 57.2976V50.2253H47.8225V57.1918C47.8225 57.8366 48.0118 58.3504 48.3903 58.7332C48.7791 59.116 49.3571 59.3074 50.1244 59.3074C50.8916 59.3074 51.4645 59.116 51.8431 58.7332C52.2318 58.3504 52.4262 57.8366 52.4262 57.1918V50.2253H54.191V57.2976C54.191 58.4259 53.8124 59.3276 53.0554 60.0026Z" fill="white"/>
<path d="M64.0317 60.8035L61.7605 56.95H59.6735V60.8035H57.9088V50.2253H62.2056C63.1672 50.2253 63.9805 50.5577 64.6455 51.2226C65.3207 51.8775 65.6583 52.6784 65.6583 53.6254C65.6583 54.3004 65.4588 54.92 65.0599 55.4842C64.6711 56.0383 64.1596 56.4412 63.5253 56.6931L65.9653 60.8035H64.0317ZM59.6735 51.8573V55.3935H62.2056C62.6762 55.3935 63.0752 55.2222 63.4025 54.8797C63.7299 54.5372 63.8936 54.1191 63.8936 53.6254C63.8936 53.1318 63.7299 52.7137 63.4025 52.3711C63.0752 52.0286 62.6762 51.8573 62.2056 51.8573H59.6735Z" fill="white"/>
<path d="M70.7728 59.1412H75.5299V60.8035H69.008V50.2253H75.4532V51.8876H70.7728V54.6379H75.0695V56.2851H70.7728V59.1412Z" fill="white"/>
<path d="M91.3401 50.2253V51.8876H88.317V60.8035H86.5523V51.8876H83.5138V50.2253H91.3401Z" fill="white"/>
<path d="M100.702 50.2253H102.466V60.8035H100.702V56.2246H96.0978V60.8035H94.3331V50.2253H96.0978V54.5623H100.702V50.2253Z" fill="white"/>
<path d="M108.066 59.1412H112.823V60.8035H106.301V50.2253H112.747V51.8876H108.066V54.6379H112.363V56.2851H108.066V59.1412Z" fill="white"/>
<path d="M121.651 50.2253H123.416V60.8035H121.651V50.2253Z" fill="white"/>
<path d="M137.532 50.2253V60.8035H135.768V53.2627L132.499 58.5821H132.284L129.015 53.2476V60.8035H127.251V50.2253H129.154L132.391 55.5144L135.645 50.2253H137.532Z" fill="white"/>
<path d="M151.644 50.2253V60.8035H149.879V53.2627L146.61 58.5821H146.395L143.127 53.2476V60.8035H141.362V50.2253H143.265L146.503 55.5144L149.756 50.2253H151.644Z" fill="white"/>
<path d="M157.238 59.1412H161.995V60.8035H155.473V50.2253H161.919V51.8876H157.238V54.6379H161.535V56.2851H157.238V59.1412Z" fill="white"/>
<path d="M172.446 60.8035L171.694 58.6728H167.121L166.369 60.8035H164.451L168.349 50.2253H170.467L174.349 60.8035H172.446ZM167.705 57.0407H171.111L169.408 52.2654L167.705 57.0407Z" fill="white"/>
<path d="M180.498 61C179.465 61 178.585 60.7683 177.859 60.3048C177.143 59.8414 176.641 59.2067 176.355 58.4007L177.874 57.5243C178.304 58.713 179.194 59.3074 180.544 59.3074C181.209 59.3074 181.705 59.1815 182.033 58.9297C182.37 58.6677 182.539 58.3302 182.539 57.9172C182.539 57.484 182.36 57.1565 182.002 56.9349C181.644 56.7032 181.01 56.4513 180.099 56.1793C179.588 56.0282 179.173 55.8871 178.856 55.7562C178.539 55.6252 178.201 55.4439 177.843 55.2122C177.495 54.9704 177.235 54.6732 177.061 54.3206C176.887 53.9679 176.8 53.5549 176.8 53.0814C176.8 52.1445 177.137 51.404 177.813 50.86C178.488 50.3059 179.301 50.0288 180.253 50.0288C181.112 50.0288 181.864 50.2353 182.508 50.6484C183.153 51.0614 183.649 51.6307 183.997 52.356L182.508 53.2023C182.058 52.215 181.306 51.7213 180.253 51.7213C179.741 51.7213 179.332 51.8422 179.025 52.084C178.718 52.3157 178.565 52.6331 178.565 53.0361C178.565 53.429 178.718 53.7413 179.025 53.973C179.342 54.1946 179.91 54.4314 180.728 54.6832C181.138 54.8142 181.434 54.915 181.618 54.9855C181.813 55.0459 182.079 55.1467 182.416 55.2877C182.764 55.4288 183.025 55.5698 183.199 55.7108C183.373 55.8519 183.557 56.0282 183.751 56.2398C183.956 56.4513 184.099 56.6931 184.181 56.9651C184.263 57.2371 184.304 57.5444 184.304 57.8869C184.304 58.844 183.951 59.6046 183.245 60.1688C182.549 60.7229 181.634 61 180.498 61Z" fill="white"/>
<path d="M194.417 60.0026C193.66 60.6675 192.683 61 191.486 61C190.289 61 189.312 60.6675 188.555 60.0026C187.798 59.3276 187.42 58.4259 187.42 57.2976V50.2253H189.185V57.1918C189.185 57.8366 189.374 58.3504 189.752 58.7332C190.141 59.116 190.719 59.3074 191.486 59.3074C192.254 59.3074 192.827 59.116 193.205 58.7332C193.594 58.3504 193.788 57.8366 193.788 57.1918V50.2253H195.553V57.2976C195.553 58.4259 195.174 59.3276 194.417 60.0026Z" fill="white"/>
<path d="M205.394 60.8035L203.123 56.95H201.036V60.8035H199.271V50.2253H203.568C204.529 50.2253 205.343 50.5577 206.008 51.2226C206.683 51.8775 207.02 52.6784 207.02 53.6254C207.02 54.3004 206.821 54.92 206.422 55.4842C206.033 56.0383 205.522 56.4412 204.887 56.6931L207.327 60.8035H205.394ZM201.036 51.8573V55.3935H203.568C204.038 55.3935 204.437 55.2222 204.765 54.8797C205.092 54.5372 205.256 54.1191 205.256 53.6254C205.256 53.1318 205.092 52.7137 204.765 52.3711C204.437 52.0286 204.038 51.8573 203.568 51.8573H201.036Z" fill="white"/>
<path d="M217.368 60.8035L216.616 58.6728H212.043L211.291 60.8035H209.373L213.27 50.2253H215.388L219.271 60.8035H217.368ZM212.626 57.0407H216.033L214.329 52.2654L212.626 57.0407Z" fill="white"/>
<path d="M228.436 55.3179C228.907 55.5597 229.275 55.8922 229.541 56.3153C229.807 56.7384 229.94 57.2271 229.94 57.7812C229.94 58.6476 229.628 59.3679 229.004 59.9421C228.38 60.5164 227.618 60.8035 226.717 60.8035H222.114V50.2253H226.38C227.26 50.2253 228.001 50.5073 228.605 51.0715C229.219 51.6256 229.526 52.3208 229.526 53.1569C229.526 54.0737 229.162 54.7941 228.436 55.3179ZM226.38 51.8573H223.878V54.6379H226.38C226.769 54.6379 227.096 54.5069 227.362 54.245C227.628 53.973 227.761 53.6405 227.761 53.2476C227.761 52.8547 227.628 52.5273 227.362 52.2654C227.096 51.9933 226.769 51.8573 226.38 51.8573ZM226.717 59.1714C227.127 59.1714 227.469 59.0304 227.746 58.7483C228.032 58.4561 228.175 58.1035 228.175 57.6905C228.175 57.2774 228.032 56.9299 227.746 56.6478C227.469 56.3556 227.127 56.2095 226.717 56.2095H223.878V59.1714H226.717Z" fill="white"/>
<path d="M234.933 59.1412H239.306V60.8035H233.168V50.2253H234.933V59.1412Z" fill="white"/>
<path d="M244.069 59.1412H248.826V60.8035H242.304V50.2253H248.749V51.8876H244.069V54.6379H248.366V56.2851H244.069V59.1412Z" fill="white"/>
<rect x="19.3096" y="0.877686" width="6.14385" height="39.0573" fill="white"/>
<rect x="10.9707" y="0.877686" width="3.94962" height="39.0573" fill="white"/>
<rect x="4.82715" y="0.877686" width="1.75539" height="39.0573" fill="white"/>
<rect y="0.877686" width="0.877693" height="39.0573" fill="white"/>
</svg>
