<svg width="30" height="30" viewBox="0 0 30 30" fill="none" xmlns="http://www.w3.org/2000/svg">
<path d="M15.5987 4.77417L15.5987 4.06982H15.5987V4.77417ZM23.3458 17.5906L24.0501 17.5907V17.5906H23.3458ZM20.1885 21.2937L20.2883 21.9909L20.2883 21.9909L20.1885 21.2937ZM15.5977 21.699L15.5977 22.4033H15.5977V21.699ZM11.0079 21.2937L10.908 21.9909L10.9081 21.9909L11.0079 21.2937ZM7.85065 17.5906H7.1463V17.5907L7.85065 17.5906ZM8.44769 15.536L7.85354 15.1577L8.44769 15.536ZM22.749 15.5367L22.1548 15.9149L22.749 15.5367ZM15.5987 4.77417L15.5986 5.47852C18.6241 5.47874 21.077 7.93143 21.077 10.9568H21.7813H22.4857C22.4857 7.15333 19.402 4.0701 15.5987 4.06982L15.5987 4.77417ZM21.7813 10.9568H21.077V13.0767H21.7813H22.4857V10.9568H21.7813ZM22.749 15.5367L22.1548 15.9149C22.4629 16.3989 22.6414 16.9727 22.6414 17.5906H23.3458H24.0501C24.0501 16.6968 23.7908 15.8617 23.3432 15.1585L22.749 15.5367ZM23.3458 17.5906L22.6414 17.5905C22.6412 19.0929 21.5741 20.3838 20.0887 20.5965L20.1885 21.2937L20.2883 21.9909C22.5045 21.6737 24.0498 19.7559 24.0501 17.5907L23.3458 17.5906ZM20.1885 21.2937L20.0887 20.5965C18.6861 20.7972 16.9591 20.9946 15.5977 20.9946V21.699V22.4033C17.0639 22.4033 18.8728 22.1936 20.2883 21.9909L20.1885 21.2937ZM15.5977 21.699L15.5977 20.9946C14.2364 20.9946 12.5101 20.7972 11.1077 20.5965L11.0079 21.2937L10.9081 21.9909C12.3234 22.1935 14.1316 22.4033 15.5977 22.4033L15.5977 21.699ZM11.0079 21.2937L11.1077 20.5965C9.62234 20.3838 8.55521 19.0928 8.55499 17.5905L7.85065 17.5906L7.1463 17.5907C7.14661 19.7558 8.69205 21.6736 10.908 21.9909L11.0079 21.2937ZM7.85065 17.5906H8.55499C8.55499 16.9725 8.73365 16.3984 9.04185 15.9143L8.44769 15.536L7.85354 15.1577C7.40573 15.8611 7.1463 16.6965 7.1463 17.5906H7.85065ZM9.41608 13.0751H10.1204V10.9568H9.41608H8.71173V13.0751H9.41608ZM9.41608 10.9568H10.1204C10.1204 7.93123 12.5731 5.47852 15.5987 5.47852V4.77417V4.06982C11.7951 4.06982 8.71173 7.15323 8.71173 10.9568H9.41608ZM8.44769 15.536L9.04185 15.9143C9.50779 15.1824 10.1204 14.2067 10.1204 13.0751H9.41608H8.71173C8.71173 13.7361 8.35032 14.3774 7.85354 15.1577L8.44769 15.536ZM21.7813 13.0767H21.077C21.077 14.2079 21.6891 15.1832 22.1548 15.9149L22.749 15.5367L23.3432 15.1585C22.8468 14.3785 22.4857 13.7374 22.4857 13.0767H21.7813Z" fill="white" fill-opacity="0.8"/>
<path d="M17.5551 23.1656C17.1344 23.8258 16.4152 24.2608 15.5985 24.2608C14.7819 24.2608 14.0626 23.8258 13.642 23.1656" stroke="white" stroke-opacity="0.8" stroke-width="1.4087" stroke-linecap="round"/>
<circle cx="20.2939" cy="6.88693" r="3.28696" fill="#FD521B"/>
</svg>
