<svg width="27" height="27" viewBox="0 0 27 27" fill="none" xmlns="http://www.w3.org/2000/svg">
<g clip-path="url(#clip0_2668_19785)">
<path d="M13.3083 13.0064C15.0951 13.0064 16.6421 12.3655 17.9065 11.1012C19.1704 9.83698 19.8115 8.29017 19.8115 6.50317C19.8115 4.7168 19.1706 3.16978 17.9063 1.90519C16.6419 0.641212 15.0949 0.000366211 13.3083 0.000366211C11.5213 0.000366211 9.97447 0.641212 8.71029 1.9054C7.44611 3.16958 6.80505 4.71659 6.80505 6.50317C6.80505 8.29017 7.44611 9.83718 8.71029 11.1014C9.97488 12.3653 11.5219 13.0064 13.3083 13.0064ZM9.82925 3.02415C10.7993 2.05412 11.9372 1.5826 13.3083 1.5826C14.6792 1.5826 15.8173 2.05412 16.7875 3.02415C17.7575 3.99438 18.2293 5.13249 18.2293 6.50317C18.2293 7.87427 17.7575 9.01218 16.7875 9.98241C15.8173 10.9526 14.6792 11.4242 13.3083 11.4242C11.9376 11.4242 10.7997 10.9524 9.82925 9.98241C8.85902 9.01238 8.38729 7.87427 8.38729 6.50317C8.38729 5.13249 8.85902 3.99438 9.82925 3.02415Z" fill="#CFD2D9"/>
<path d="M24.6869 20.7621C24.6504 20.236 24.5766 19.6621 24.4681 19.0561C24.3585 18.4455 24.2174 17.8683 24.0485 17.3407C23.8738 16.7955 23.6367 16.257 23.3432 15.741C23.0389 15.2054 22.6813 14.739 22.28 14.3553C21.8604 13.9538 21.3467 13.631 20.7526 13.3956C20.1606 13.1613 19.5045 13.0427 18.8026 13.0427C18.527 13.0427 18.2605 13.1558 17.7457 13.4909C17.4289 13.6975 17.0583 13.9365 16.6447 14.2008C16.291 14.4261 15.8118 14.6373 15.22 14.8284C14.6426 15.0153 14.0563 15.11 13.4775 15.11C12.8991 15.11 12.3128 15.0153 11.735 14.8284C11.1438 14.6375 10.6645 14.4263 10.3114 14.201C9.90166 13.9392 9.53087 13.7002 9.20931 13.4907C8.69495 13.1556 8.42839 13.0425 8.15277 13.0425C7.45074 13.0425 6.79486 13.1613 6.20304 13.3958C5.60937 13.6308 5.09541 13.9536 4.67539 14.3555C4.27412 14.7395 3.91651 15.2056 3.61246 15.741C3.31934 16.257 3.08203 16.7953 2.90735 17.341C2.73864 17.8685 2.59753 18.4455 2.48795 19.0561C2.37918 19.6613 2.30564 20.2354 2.26918 20.7627C2.23334 21.2783 2.21521 21.8149 2.21521 22.3571C2.21521 23.7665 2.66325 24.9075 3.54675 25.749C4.41934 26.5794 5.57373 27.0004 6.97799 27.0004H19.9787C21.3825 27.0004 22.5369 26.5794 23.4097 25.749C24.2934 24.9081 24.7414 23.7667 24.7414 22.3569C24.7412 21.8129 24.7229 21.2763 24.6869 20.7621ZM22.3187 24.6026C21.7422 25.1514 20.9767 25.4182 19.9785 25.4182H6.97799C5.97954 25.4182 5.21407 25.1514 4.6377 24.6028C4.07224 24.0646 3.79745 23.3298 3.79745 22.3571C3.79745 21.8512 3.81413 21.3516 3.8475 20.8721C3.88005 20.4016 3.94659 19.8848 4.04526 19.3356C4.14269 18.7932 4.2667 18.2842 4.41419 17.8234C4.55571 17.3815 4.74873 16.944 4.98809 16.5225C5.21654 16.1208 5.47939 15.7762 5.76942 15.4985C6.04072 15.2388 6.38267 15.0262 6.78559 14.8668C7.15823 14.7193 7.57702 14.6385 8.03165 14.6264C8.08706 14.6558 8.18573 14.7121 8.34558 14.8163C8.67085 15.0283 9.04575 15.2701 9.46021 15.5348C9.92741 15.8327 10.5293 16.1017 11.2484 16.3338C11.9836 16.5716 12.7335 16.6923 13.4777 16.6923C14.222 16.6923 14.972 16.5716 15.7068 16.3341C16.4265 16.1015 17.0282 15.8327 17.496 15.5344C17.9202 15.2633 18.2846 15.0285 18.6098 14.8163C18.7697 14.7123 18.8684 14.6558 18.9238 14.6264C19.3786 14.6385 19.7974 14.7193 20.1702 14.8668C20.573 15.0262 20.9149 15.239 21.1862 15.4985C21.4762 15.776 21.7391 16.1206 21.9675 16.5227C22.2071 16.944 22.4003 17.3817 22.5416 17.8232C22.6893 18.2846 22.8135 18.7934 22.9108 19.3354C23.0092 19.8856 23.076 20.4026 23.1085 20.8723V20.8727C23.1421 21.3504 23.159 21.8497 23.1592 22.3571C23.159 23.33 22.8842 24.0646 22.3187 24.6026Z" fill="#CFD2D9"/>
</g>
<defs>
<clipPath id="clip0_2668_19785">
<rect width="27" height="27.0001" fill="white" transform="translate(0.000366211 0.000366211)"/>
</clipPath>
</defs>
</svg>
