<svg width="616" height="127" viewBox="0 0 616 127" fill="none" xmlns="http://www.w3.org/2000/svg">
<path d="M736.196 59.3984C733.318 58.5553 729.88 57.9931 725.282 57.9931C706.821 57.9931 706.821 38.655 688.358 38.655C669.933 38.655 669.933 57.9931 651.509 57.9931C633.082 57.9931 633.082 25.7606 614.675 25.7606C596.25 25.7606 596.25 51.5424 577.824 51.5424C559.363 51.5424 559.363 38.6481 540.902 38.6481C522.439 38.6481 522.439 57.986 503.996 57.986C485.553 57.986 485.553 0 467.127 0C448.666 0 448.666 38.676 430.222 38.676C411.742 38.676 411.742 12.8944 393.281 12.8944C374.838 12.8944 374.838 77.2609 356.377 77.2609C337.897 77.2609 337.897 38.6481 319.436 38.6481C300.973 38.6481 300.973 57.986 282.512 57.986C264.032 57.986 264.032 25.7537 245.552 25.7537C227.127 25.7537 227.127 51.5353 208.702 51.5353C190.276 51.5353 190.276 38.6128 171.851 38.6128C153.353 38.6128 153.353 77.2609 134.874 77.2609C116.412 77.2609 116.412 38.6481 97.9504 38.6481C79.4707 38.6481 79.4707 57.986 60.9911 57.986C42.4933 57.986 42.4933 25.7537 23.9775 25.7537C5.49778 25.7537 5.49778 57.986 -12.9819 57.986C-17.5973 57.986 -21.0542 58.5482 -23.9502 59.3914C-27.4615 60.4173 -30.1583 61.8437 -33 63.2C-30.1583 64.5561 -27.4615 65.9827 -23.9502 67.0086C-21.0542 67.8518 -17.5973 68.414 -12.9819 68.414C5.49778 68.414 5.49778 100.646 23.9775 100.646C42.4752 100.646 42.4752 68.414 60.9911 68.414C79.4707 68.414 79.4707 87.7521 97.9504 87.7521C116.412 87.7521 116.412 49.1391 134.874 49.1391C153.371 49.1391 153.371 87.7872 171.851 87.7872C190.276 87.7872 190.276 74.8647 208.702 74.8647C227.127 74.8647 227.127 100.646 245.552 100.646C264.032 100.646 264.032 68.414 282.512 68.414C300.973 68.414 300.973 87.7521 319.436 87.7521C337.914 87.7521 337.914 49.1391 356.377 49.1391C374.82 49.1391 374.82 113.506 393.281 113.506C411.761 113.506 411.761 87.724 430.222 87.724C448.666 87.724 448.666 126.4 467.127 126.4C485.571 126.4 485.571 68.414 503.996 68.414C522.458 68.414 522.458 87.7521 540.902 87.7521C559.363 87.7521 559.363 74.8577 577.824 74.8577C596.25 74.8577 596.25 100.639 614.675 100.639C633.101 100.639 633.101 68.4069 651.509 68.4069C669.933 68.4069 669.933 87.745 688.358 87.745C706.821 87.745 706.821 68.4069 725.282 68.4069C729.88 68.4069 733.318 67.8447 736.196 67.0015C739.707 65.9756 742.386 64.5492 745.21 63.1929C742.386 61.8508 739.707 60.4244 736.196 59.3984Z" fill="white" fill-opacity="0.3"/>
<path d="M743.85 62.2358C740.942 61.74 737.471 61.4071 732.827 61.4071C714.181 61.4071 714.181 49.9589 695.537 49.9589C676.927 49.9589 676.927 61.4071 658.319 61.4071C639.71 61.4071 639.71 42.3292 621.119 42.3292C602.511 42.3292 602.511 57.5884 583.902 57.5884C565.258 57.5884 565.258 49.9589 546.612 49.9589C527.966 49.9589 527.966 61.4071 509.339 61.4071C490.712 61.4071 490.712 27.0857 472.104 27.0857C453.458 27.0857 453.458 49.9744 434.831 49.9744C416.168 49.9744 416.168 34.7152 397.522 34.7152C378.895 34.7152 378.895 72.8164 360.251 72.8164C341.586 72.8164 341.586 49.9589 322.942 49.9589C304.296 49.9589 304.296 61.4071 285.65 61.4071C266.987 61.4071 266.987 42.3292 248.324 42.3292C229.716 42.3292 229.716 57.5884 211.107 57.5884C192.498 57.5884 192.498 49.9434 173.889 49.9434C155.207 49.9434 155.207 72.8164 136.544 72.8164C117.899 72.8164 117.899 49.9589 99.2535 49.9589C80.5899 49.9589 80.5899 61.4071 61.9263 61.4071C43.2445 61.4071 43.2445 42.3292 24.5443 42.3292C5.88081 42.3292 5.88081 61.4071 -12.7827 61.4071C-17.4439 61.4071 -20.9354 61.74 -23.8601 62.2358C-27.4064 62.84 -30.1301 63.6919 -33 64.4898C-30.1301 65.2953 -27.4064 66.1397 -23.8601 66.7439C-20.9354 67.2395 -17.4439 67.5726 -12.7827 67.5726C5.88081 67.5726 5.88081 86.6503 24.5443 86.6503C43.2262 86.6503 43.2262 67.5726 61.9263 67.5726C80.5899 67.5726 80.5899 79.0208 99.2535 79.0208C117.899 79.0208 117.899 56.1632 136.544 56.1632C155.226 56.1632 155.226 79.0362 173.889 79.0362C192.498 79.0362 192.498 71.3913 211.107 71.3913C229.716 71.3913 229.716 86.6503 248.324 86.6503C266.987 86.6503 266.987 67.5726 285.65 67.5726C304.296 67.5726 304.296 79.0208 322.942 79.0208C341.605 79.0208 341.605 56.1632 360.251 56.1632C378.878 56.1632 378.878 94.2643 397.522 94.2643C416.186 94.2643 416.186 79.0053 434.831 79.0053C453.458 79.0053 453.458 101.894 472.104 101.894C490.731 101.894 490.731 67.5726 509.339 67.5726C527.985 67.5726 527.985 79.0208 546.612 79.0208C565.258 79.0208 565.258 71.3913 583.902 71.3913C602.511 71.3913 602.511 86.6503 621.119 86.6503C639.729 86.6503 639.729 67.5726 658.319 67.5726C676.927 67.5726 676.927 79.0208 695.537 79.0208C714.181 79.0208 714.181 67.5726 732.827 67.5726C737.471 67.5726 740.942 67.2395 743.85 66.7439C747.396 66.1397 750.102 65.2876 752.953 64.4898C750.102 63.6842 747.396 62.84 743.85 62.2358Z" fill="white"/>
</svg>
